#N canvas 638 65 393 533 10;
#X msg -86 48 \; pd dsp \$1;
#X obj -86 12 tgl 30 0 empty empty empty 17 7 0 10 -159808 -1 -1 0
1;
#X text -87 -6 TURN ON FOR AUDIO;
#X obj -85 106 bng 30 250 50 0 empty empty empty 17 7 0 10 -159808
-1 -1;
#X obj -84 199 vu 15 120 empty empty -1 -8 0 10 -66577 -262144 1 0
;
#X obj -63 199 vu 15 120 empty empty -1 -8 0 10 -66577 -262144 1 0
;
#N canvas 301 211 842 581 track 0;
#X obj -464 46 openpanel;
#X obj -464 124 soundfiler;
#X obj -464 17 inlet;
#N canvas 0 22 450 278 (subpatch) 0;
#X array Lchan1 1.31201e+07 float 2;
#X coords 0 1 1.31201e+07 -1 200 140 1 0 0;
#X restore -189 26 graph;
#X obj -189 393 env~;
#X obj -189 418 - 100;
#X obj -189 442 outlet;
#X obj -189 369 r~ toVU1;
#X obj -119 392 env~;
#X obj -119 417 - 100;
#X obj -119 441 outlet;
#X obj -119 368 r~ toVU2;
#N canvas 0 22 450 278 (subpatch) 0;
#X array Rchan1 1.31201e+07 float 2;
#X coords 0 1 1.31201e+07 -1 200 140 1 0 0;
#X restore -190 213 graph;
#X obj -464 232 expr 44100 / $f1;
#X floatatom -436 151 20 0 0 0 - - -;
#X obj -394 307 r sampleSize;
#X floatatom -436 259 5 0 0 0 - - -;
#X obj -464 295 phasor~;
#X obj -464 324 *~;
#X obj -464 378 s~ track;
#X obj -436 175 s sampleSize;
#X msg -342 278 0;
#X obj -533 255 r stopL;
#X msg -533 278 0;
#X obj -342 256 r stopR;
#N canvas 0 22 450 278 (subpatch) 0;
#X array Lchan2 1.31201e+07 float 2;
#X coords 0 1 1.31201e+07 -1 200 140 1;
#X restore 37 27 graph;
#N canvas 0 22 450 278 (subpatch) 0;
#X array Rchan2 1.31201e+07 float 2;
#X coords 0 1 1.31201e+07 -1 200 140 1;
#X restore 33 212 graph;
#X obj 40 395 env~;
#X obj 40 420 - 100;
#X obj 40 444 outlet;
#X obj 110 394 env~;
#X obj 110 419 - 100;
#X obj 110 443 outlet;
#X obj 40 371 r~ toVU3;
#X obj 110 370 r~ toVU4;
#X msg -464 70 read -resize \$1 Lchan1 Rchan1;
#X msg -430 97 read -resize \$1 Lchan2 Rchan2;
#X connect 0 0 35 0;
#X connect 0 0 36 0;
#X connect 1 0 13 0;
#X connect 1 0 14 0;
#X connect 2 0 0 0;
#X connect 4 0 5 0;
#X connect 5 0 6 0;
#X connect 7 0 4 0;
#X connect 8 0 9 0;
#X connect 9 0 10 0;
#X connect 11 0 8 0;
#X connect 13 0 16 0;
#X connect 13 0 17 0;
#X connect 14 0 20 0;
#X connect 15 0 18 1;
#X connect 17 0 18 0;
#X connect 18 0 19 0;
#X connect 21 0 17 1;
#X connect 22 0 23 0;
#X connect 23 0 17 0;
#X connect 24 0 21 0;
#X connect 27 0 28 0;
#X connect 28 0 29 0;
#X connect 30 0 31 0;
#X connect 31 0 32 0;
#X connect 33 0 27 0;
#X connect 34 0 30 0;
#X connect 35 0 1 0;
#X connect 36 0 1 0;
#X restore -85 141 pd track select 1;
#X obj 123 114 vsl 15 300 0 1 0 0 empty empty empty 0 -9 0 10 -262144
-1 -1 0 1;
#X floatatom 123 429 5 0 0 0 - - -;
#X obj 81 -1 bng 30 250 50 0 empty empty empty 17 7 0 10 -159808 -1
-1;
#X text 83 -18 PLAY;
#X obj 174 -1 tgl 30 0 empty empty empty 17 7 0 10 -159808 -1 -1 0
1;
#X text 176 -18 LOOP;
#X obj 77 114 vsl 15 300 0 1 0 0 empty empty empty 0 -9 0 10 -262144
-1 -1 0 1;
#X floatatom 77 429 5 0 0 0 - - -;
#N canvas 517 27 741 720 wiimote 0;
#X obj -401 15 print;
#X obj -401 41 dumpOSC 5600;
#X obj -401 70 route /wii/irdata;
#X obj -401 99 unpack \$1 \$1 \$1 \$1 \$1 \$1 \$1 \$1 \$1 \$1 \$1 \$1
;
#X obj -468 774 sendOSC;
#X floatatom -468 802 5 0 0 0 - - -;
#X floatatom 14 730 5 0 0 0 - - -;
#X floatatom 13 666 5 0 0 0 - - -;
#X text -401 381 click to talk to processing;
#X floatatom 96 118 5 0 0 0 - - -;
#X floatatom 97 164 5 0 0 0 - - -;
#X floatatom 97 214 5 0 0 0 - - -;
#X floatatom 63 279 5 0 0 0 - - -;
#X floatatom 64 329 5 0 0 0 - - -;
#X floatatom 64 379 5 0 0 0 - - -;
#X floatatom 37 443 5 0 0 0 - - -;
#X floatatom 36 492 5 0 0 0 - - -;
#X floatatom 37 542 5 0 0 0 - - -;
#X obj 96 139 prepend send /4z;
#X obj 97 189 prepend send /4y;
#X obj 97 236 prepend send /4x;
#X obj 63 302 prepend send /3z;
#X obj 64 352 prepend send /3y;
#X obj 64 401 prepend send /3x;
#X obj 37 468 prepend send /2z;
#X obj 36 515 prepend send /2y;
#X obj 37 564 prepend send /2x;
#X floatatom 12 615 5 0 0 0 - - -;
#X obj 12 639 prepend send /1z;
#X obj 13 705 prepend send /1y;
#X obj 14 756 prepend send /1x;
#X msg -398 428 connect localhost 8000;
#X obj -398 404 inlet;
#X text 161 283 IR 3;
#X text 193 117 IR 4;
#X text 137 449 IR 2;
#X text 112 616 IR 1;
#X obj 187 395 s chopp;
#X obj 189 682 s vol;
#X obj 183 508 s pitch;
#X connect 1 0 2 0;
#X connect 2 0 3 0;
#X connect 3 0 6 0;
#X connect 3 1 7 0;
#X connect 3 2 27 0;
#X connect 3 3 17 0;
#X connect 3 4 16 0;
#X connect 3 5 15 0;
#X connect 3 6 14 0;
#X connect 3 7 13 0;
#X connect 3 8 12 0;
#X connect 3 9 11 0;
#X connect 3 10 10 0;
#X connect 3 11 9 0;
#X connect 4 0 5 0;
#X connect 6 0 30 0;
#X connect 7 0 29 0;
#X connect 7 0 38 0;
#X connect 9 0 18 0;
#X connect 10 0 19 0;
#X connect 11 0 20 0;
#X connect 12 0 21 0;
#X connect 13 0 22 0;
#X connect 14 0 23 0;
#X connect 14 0 37 0;
#X connect 15 0 24 0;
#X connect 16 0 25 0;
#X connect 16 0 39 0;
#X connect 17 0 26 0;
#X connect 18 0 4 0;
#X connect 19 0 4 0;
#X connect 20 0 4 0;
#X connect 21 0 4 0;
#X connect 22 0 4 0;
#X connect 23 0 4 0;
#X connect 24 0 4 0;
#X connect 25 0 4 0;
#X connect 26 0 4 0;
#X connect 27 0 28 0;
#X connect 28 0 4 0;
#X connect 29 0 4 0;
#X connect 30 0 4 0;
#X connect 31 0 4 0;
#X connect 32 0 31 0;
#X restore -88 402 pd wiimote IR;
#X obj -88 365 bng 30 250 50 0 empty empty empty 17 7 0 10 -159808
-1 -1;
#X text -52 102 SELECT TRACK;
#X text -55 359 OSC CONNECT;
#N canvas 242 543 425 169 basic 0;
#X obj -68 -41 inlet;
#X obj -68 -14 s play;
#X obj 251 -37 inlet;
#X obj 251 -10 s loop;
#X obj -69 48 outlet;
#X obj -69 23 r play2;
#X obj -2 15 bng 15 250 50 0 empty empty empty 17 7 0 10 -261682 -1
-1;
#X obj -2 38 s playdelay;
#X obj 32 -2 r playdelay2;
#X obj 75 -41 r delay;
#X obj -2 -24 delay 700;
#X connect 0 0 1 0;
#X connect 0 0 10 0;
#X connect 2 0 3 0;
#X connect 5 0 4 0;
#X connect 6 0 7 0;
#X connect 8 0 6 0;
#X connect 9 0 10 1;
#X connect 10 0 6 0;
#X restore 81 41 pd basic buttons;
#X obj 77 91 r vol;
#X obj 123 91 r pitch;
#X obj 123 451 s pitch2;
#X obj 77 451 s vol2;
#N canvas 448 145 816 681 vol/pitch/bpf 0;
#X obj 124 97 spigot;
#X obj 14 286 *~;
#X obj -113 287 *~;
#X obj 22 310 s~ toVU2;
#X obj -100 311 s~ toVU1;
#X obj 149 562 dac~;
#X obj -113 80 tabplay~ Lchan1;
#X obj 37 49 tabplay~ Rchan1;
#X floatatom 200 87 5 0 0 0 - - -;
#X floatatom 211 260 5 0 0 0 - - -;
#X text 210 244 vol input;
#X text -113 14 BANG;
#N canvas 0 22 603 635 settings 0;
#X obj 381 289 hsl 200 15 10 100 0 0 empty sequence sequence 20 8 0
10 -262144 -260097 -1 0 0;
#X msg 378 335 sequence \$1;
#X floatatom 386 312 5 0 0 0 - - -;
#X obj 381 373 hsl 200 15 10 100 0 0 empty seekwindow seekwindow 20
8 0 10 -262144 -260097 -1 0 0;
#X floatatom 386 396 5 0 0 0 - - -;
#X obj 379 462 hsl 200 15 5 100 0 0 empty overlap overlap 20 8 0 10
-262144 -260097 -1 0 0;
#X floatatom 384 485 5 0 0 0 - - -;
#X obj 324 540 outlet;
#X msg 378 422 seekwindow \$1;
#X msg 376 509 overlap \$1;
#X msg 43 477 \; sequence 40 \; seekwindow 20 \; overlap 10 \;;
#X obj 39 289 cnv 15 300 150 empty empty empty 20 12 0 14 -233017 -66577
0;
#X obj 52 325 hsl 200 15 10 100 0 0 empty empty set 20 8 0 10 -262144
-260097 -1 0 0;
#X floatatom 57 348 5 0 0 0 - - -;
#X msg 49 371 set \$1;
#X text 113 348 all settings at once in the ratio:;
#X text 52 301 range 10 - 100 milliseconds;
#X text 43 50 - sequence: signal grain size;
#X text 43 76 - seekwindow: margin for finding best overlap match;
#X text 43 102 - overlap: overlap size of grains;
#X text 42 451 [soundtouch~] defaults:;
#X text 39 138 You can experiment with these settings according to
your sound material. For easy of use \, the 'set' selector does all
three settings at once in a fixed ratio \, but they can be set individually
as well. Notice that changing settings in runtime can sometimes cause
disproportionate latency in [soundtouch~] \, which is only undone when
you reload the object. Alternatively \, you can initialize [soundtouch~]
with an optional single argument for sequence size \, from which the
other settings are derived in fixed ratio.;
#X text 42 568 Website of the SoundTouch library:;
#X text 41 593 http://www.surina.net/soundtouch/;
#X text 42 9 In Olli Parviainen's SoundTouch library \, these settings
are user-definable in milliseconds:;
#X text 373 540 to [soundtouch~] left inlet;
#X text 112 369 sequence 1;
#X text 112 390 seekwindow 0.5;
#X text 113 410 overlap 0.25;
#X connect 0 0 1 0;
#X connect 0 0 2 0;
#X connect 1 0 7 0;
#X connect 3 0 8 0;
#X connect 3 0 4 0;
#X connect 5 0 9 0;
#X connect 5 0 6 0;
#X connect 8 0 7 0;
#X connect 9 0 7 0;
#X connect 12 0 14 0;
#X connect 12 0 13 0;
#X connect 14 0 7 0;
#X restore -31 136 pd settings;
#X obj -113 187 soundtouch~ 80;
#X floatatom 9 204 5 0 0 0 - - -;
#X text 45 205 pitch input;
#X floatatom 201 114 5 0 0 0 - - -;
#X obj 157 70 r loop;
#X obj -113 32 r play;
#X obj 124 131 s play2;
#X obj 162 243 r vol2;
#X obj 9 171 r pitch2;
#X obj 531 87 spigot;
#X obj 421 276 *~;
#X obj 294 277 *~;
#X floatatom 607 77 5 0 0 0 - - -;
#X floatatom 628 228 5 0 0 0 - - -;
#X text 627 212 vol input;
#N canvas 0 22 603 635 settings 0;
#X obj 381 289 hsl 200 15 10 100 0 0 empty sequence sequence 20 8 0
10 -262144 -260097 -1 0 0;
#X msg 378 335 sequence \$1;
#X floatatom 386 312 5 0 0 0 - - -;
#X obj 381 373 hsl 200 15 10 100 0 0 empty seekwindow seekwindow 20
8 0 10 -262144 -260097 -1 0 0;
#X floatatom 386 396 5 0 0 0 - - -;
#X obj 379 462 hsl 200 15 5 100 0 0 empty overlap overlap 20 8 0 10
-262144 -260097 -1 0 0;
#X floatatom 384 485 5 0 0 0 - - -;
#X obj 324 540 outlet;
#X msg 378 422 seekwindow \$1;
#X msg 376 509 overlap \$1;
#X msg 43 477 \; sequence 40 \; seekwindow 20 \; overlap 10 \;;
#X obj 39 289 cnv 15 300 150 empty empty empty 20 12 0 14 -233017 -66577
0;
#X obj 52 325 hsl 200 15 10 100 0 0 empty empty set 20 8 0 10 -262144
-260097 -1 0 0;
#X floatatom 57 348 5 0 0 0 - - -;
#X msg 49 371 set \$1;
#X text 113 348 all settings at once in the ratio:;
#X text 52 301 range 10 - 100 milliseconds;
#X text 43 50 - sequence: signal grain size;
#X text 43 76 - seekwindow: margin for finding best overlap match;
#X text 43 102 - overlap: overlap size of grains;
#X text 42 451 [soundtouch~] defaults:;
#X text 39 138 You can experiment with these settings according to
your sound material. For easy of use \, the 'set' selector does all
three settings at once in a fixed ratio \, but they can be set individually
as well. Notice that changing settings in runtime can sometimes cause
disproportionate latency in [soundtouch~] \, which is only undone when
you reload the object. Alternatively \, you can initialize [soundtouch~]
with an optional single argument for sequence size \, from which the
other settings are derived in fixed ratio.;
#X text 42 568 Website of the SoundTouch library:;
#X text 41 593 http://www.surina.net/soundtouch/;
#X text 42 9 In Olli Parviainen's SoundTouch library \, these settings
are user-definable in milliseconds:;
#X text 373 540 to [soundtouch~] left inlet;
#X text 112 369 sequence 1;
#X text 112 390 seekwindow 0.5;
#X text 113 410 overlap 0.25;
#X connect 0 0 1 0;
#X connect 0 0 2 0;
#X connect 1 0 7 0;
#X connect 3 0 8 0;
#X connect 3 0 4 0;
#X connect 5 0 9 0;
#X connect 5 0 6 0;
#X connect 8 0 7 0;
#X connect 9 0 7 0;
#X connect 12 0 14 0;
#X connect 12 0 13 0;
#X connect 14 0 7 0;
#X restore 376 126 pd settings;
#X obj 294 177 soundtouch~ 80;
#X floatatom 416 194 5 0 0 0 - - -;
#X text 452 195 pitch input;
#X floatatom 608 104 5 0 0 0 - - -;
#X obj 564 60 r loop;
#X obj 577 211 r vol2;
#X obj 416 161 r pitch2;
#X obj 444 39 tabplay~ Rchan2;
#X obj 294 70 tabplay~ Lchan2;
#X obj 307 301 s~ toVU3;
#X obj 429 300 s~ toVU4;
#X obj 153 270 r cross1;
#X obj 548 260 r cross2;
#X obj 294 22 r playdelay;
#X obj 532 138 s playdelay2;
#X text 294 4 DELAY BANG;
#X obj 14 259 *~;
#X obj -113 256 *~;
#X obj 421 227 *~;
#X obj 294 228 *~;
#X connect 0 0 16 0;
#X connect 0 0 19 0;
#X connect 1 0 3 0;
#X connect 1 0 5 1;
#X connect 2 0 4 0;
#X connect 2 0 5 0;
#X connect 6 0 13 0;
#X connect 6 1 0 0;
#X connect 7 0 13 0;
#X connect 7 1 0 0;
#X connect 12 0 13 0;
#X connect 13 0 46 0;
#X connect 13 0 45 0;
#X connect 17 0 8 0;
#X connect 17 0 0 1;
#X connect 18 0 6 0;
#X connect 18 0 7 0;
#X connect 20 0 9 0;
#X connect 20 0 46 1;
#X connect 20 0 45 1;
#X connect 21 0 13 1;
#X connect 21 0 14 0;
#X connect 22 0 32 0;
#X connect 22 0 43 0;
#X connect 23 0 39 0;
#X connect 23 0 5 1;
#X connect 24 0 38 0;
#X connect 24 0 5 0;
#X connect 28 0 29 0;
#X connect 29 0 48 0;
#X connect 29 0 47 0;
#X connect 33 0 25 0;
#X connect 33 0 22 1;
#X connect 34 0 26 0;
#X connect 34 0 48 1;
#X connect 34 0 47 1;
#X connect 35 0 29 1;
#X connect 35 0 30 0;
#X connect 36 0 29 0;
#X connect 36 1 22 0;
#X connect 37 0 29 0;
#X connect 37 1 22 0;
#X connect 40 0 1 1;
#X connect 40 0 2 1;
#X connect 41 0 23 1;
#X connect 41 0 24 1;
#X connect 42 0 36 0;
#X connect 42 0 37 0;
#X connect 45 0 1 0;
#X connect 46 0 2 0;
#X connect 47 0 23 0;
#X connect 48 0 24 0;
#X restore -89 452 pd vol/pitch/bpf guts;
#X obj -34 199 vu 15 120 empty empty -1 -8 0 10 -66577 -262144 1 0
;
#X obj -13 199 vu 15 120 empty empty -1 -8 0 10 -66577 -1 1 0;
#N canvas 446 129 238 332 chop 0;
#X obj 19 6 r chopp;
#X obj 22 218 hsl 128 15 0 1 0 0 empty empty empty -2 -8 0 10 -262144
-1 -1 0 1;
#X floatatom 19 31 5 0 0 0 - - -;
#X msg 64 96 1;
#X obj 19 113 -;
#X floatatom 19 141 5 0 0 0 - - -;
#X floatatom 19 185 5 0 0 0 - - -;
#X obj 19 162 * -1;
#X obj 67 71 hsl 128 15 0 1 0 0 empty empty empty -2 -8 0 10 -262144
-1 -1 0 1;
#X obj 147 114 s cross1;
#X obj 19 246 s cross2;
#X connect 0 0 2 0;
#X connect 1 0 10 0;
#X connect 2 0 4 0;
#X connect 2 0 8 0;
#X connect 3 0 4 1;
#X connect 4 0 5 0;
#X connect 5 0 7 0;
#X connect 6 0 1 0;
#X connect 7 0 6 0;
#X connect 8 0 4 0;
#X connect 8 0 3 0;
#X connect 8 0 9 0;
#X restore -89 427 pd chop;
#X floatatom 184 423 5 0 0 0 - - -;
#X obj 184 451 s delay;
#X obj 184 226 vsl 15 180 0 2000 0 0 empty empty empty 0 -9 0 10 -232576
-1 -1 0 1;
#X obj 184 151 bng 30 250 50 0 empty empty empty 17 7 0 10 -232576
-1 -1;
#X obj 229 152 bng 30 250 50 0 empty empty empty 17 7 0 10 -232576
-1 -1;
#N canvas 524 56 262 393 delay 0;
#X obj 35 29 inlet;
#X obj 35 90 bng 15 250 50 0 empty empty empty 17 7 0 10 -262144 -1
-1;
#X obj 78 30 inlet;
#X obj 78 92 bng 15 250 50 0 empty empty empty 17 7 0 10 -262144 -1
-1;
#X obj 38 258 f;
#X obj 89 281 moses 0;
#X floatatom 89 337 5 0 0 0 - - -;
#X obj 38 212 t b f;
#X obj 89 362 outlet;
#X msg 35 119 -50;
#X msg 78 119 50;
#X obj 89 257 + 2000;
#X obj 89 308 moses 2050;
#X connect 0 0 1 0;
#X connect 1 0 9 0;
#X connect 2 0 3 0;
#X connect 3 0 10 0;
#X connect 4 0 11 0;
#X connect 5 1 12 0;
#X connect 6 0 8 0;
#X connect 7 0 4 0;
#X connect 7 1 11 1;
#X connect 9 0 7 0;
#X connect 10 0 7 0;
#X connect 11 0 5 0;
#X connect 12 0 4 1;
#X connect 12 0 6 0;
#X restore 184 193 pd delay;
#X text 195 156 -;
#X text 240 157 +;
#X connect 1 0 0 0;
#X connect 3 0 6 0;
#X connect 6 0 4 0;
#X connect 6 1 5 1;
#X connect 6 2 25 0;
#X connect 6 3 26 0;
#X connect 7 0 8 0;
#X connect 8 0 22 0;
#X connect 9 0 19 0;
#X connect 11 0 19 1;
#X connect 13 0 14 0;
#X connect 14 0 23 0;
#X connect 16 0 15 0;
#X connect 19 0 9 0;
#X connect 20 0 13 0;
#X connect 21 0 7 0;
#X connect 28 0 29 0;
#X connect 30 0 28 0;
#X connect 31 0 33 0;
#X connect 32 0 33 1;
#X connect 33 0 30 0;
