#N canvas 13 54 504 426 10;
#X msg -86 48 \; pd dsp \$1;
#X obj -86 12 tgl 30 0 empty empty empty 17 7 0 10 -159808 -45076 -232576
0 1;
#X text -87 -6 TURN ON FOR AUDIO;
#X obj -85 106 bng 30 250 50 0 empty empty empty 17 7 0 10 -159808
-232576 -232576;
#X obj -84 199 vu 15 120 empty empty -1 -8 0 10 -66577 -262144 1 0
;
#X obj -63 199 vu 15 120 empty empty -1 -8 0 10 -66577 -262144 1 0
;
#N canvas 461 126 842 581 track 0;
#X obj -464 46 openpanel;
#X obj -464 124 soundfiler;
#X obj -464 17 inlet;
#N canvas 0 22 450 278 (subpatch) 0;
#X array Lchan1 1.31201e+07 float 2;
#X coords 0 1 1.31201e+07 -1 200 140 1 0 0;
#X restore -189 26 graph;
#X obj -189 393 env~;
#X obj -189 418 - 100;
#X obj -189 442 outlet;
#X obj -189 369 r~ toVU1;
#X obj -119 392 env~;
#X obj -119 417 - 100;
#X obj -119 441 outlet;
#X obj -119 368 r~ toVU2;
#N canvas 0 22 450 278 (subpatch) 0;
#X array Rchan1 1.31201e+07 float 2;
#X coords 0 1 1.31201e+07 -1 200 140 1 0 0;
#X restore -190 213 graph;
#N canvas 0 22 450 278 (subpatch) 0;
#X array Lchan2 1.31201e+07 float 2;
#X coords 0 1 1.31201e+07 -1 200 140 1;
#X restore 37 27 graph;
#N canvas 0 22 450 278 (subpatch) 0;
#X array Rchan2 1.31201e+07 float 2;
#X coords 0 1 1.31201e+07 -1 200 140 1;
#X restore 33 212 graph;
#X obj 40 395 env~;
#X obj 40 420 - 100;
#X obj 40 444 outlet;
#X obj 110 394 env~;
#X obj 110 419 - 100;
#X obj 110 443 outlet;
#X obj 40 371 r~ toVU3;
#X obj 110 370 r~ toVU4;
#X msg -464 70 read -resize \$1 Lchan1 Rchan1;
#X msg -430 97 read -resize \$1 Lchan2 Rchan2;
#X connect 0 0 23 0;
#X connect 0 0 24 0;
#X connect 2 0 0 0;
#X connect 4 0 5 0;
#X connect 5 0 6 0;
#X connect 7 0 4 0;
#X connect 8 0 9 0;
#X connect 9 0 10 0;
#X connect 11 0 8 0;
#X connect 15 0 16 0;
#X connect 16 0 17 0;
#X connect 18 0 19 0;
#X connect 19 0 20 0;
#X connect 21 0 15 0;
#X connect 22 0 18 0;
#X connect 23 0 1 0;
#X connect 24 0 1 0;
#X restore -85 141 pd track select 1;
#X obj 81 -1 bng 30 250 50 0 empty empty empty 17 7 0 10 -232576 -1
-1;
#X text 83 -18 PLAY;
#X obj 174 -1 tgl 30 0 empty empty empty 17 7 0 10 -232576 -1 -1 0
1;
#X text 176 -18 LOOP;
#X text -52 102 SELECT TRACK;
#N canvas 668 512 386 178 basic 0;
#X obj -68 -41 inlet;
#X obj -68 -14 s play;
#X obj 119 -29 inlet;
#X obj 119 -2 s loop;
#X obj -69 48 outlet;
#X obj -69 23 r play2;
#X obj -2 15 bng 15 250 50 0 empty empty empty 17 7 0 10 -261682 -1
-1;
#X obj -2 38 s playdelay;
#X obj 32 -2 r playdelay2;
#X obj -2 -24 delay 700;
#X obj 65 -41 r delay;
#X connect 0 0 1 0;
#X connect 0 0 9 0;
#X connect 2 0 3 0;
#X connect 5 0 4 0;
#X connect 6 0 7 0;
#X connect 8 0 6 0;
#X connect 9 0 6 0;
#X connect 10 0 9 1;
#X restore 81 41 pd basic buttons;
#N canvas 487 120 816 681 vol/pitch/bpf 0;
#X obj 124 97 spigot;
#X obj 14 286 *~;
#X obj -113 287 *~;
#X obj 22 310 s~ toVU2;
#X obj -100 311 s~ toVU1;
#X obj 149 562 dac~;
#X obj -113 80 tabplay~ Lchan1;
#X obj 37 49 tabplay~ Rchan1;
#X obj -111 437 vcf~;
#X obj 14 437 vcf~;
#X floatatom 200 87 5 0 0 0 - - -;
#X floatatom 211 260 5 0 0 0 - - -;
#X floatatom 189 377 5 0 0 0 - - -;
#X text 210 244 vol input;
#X text -113 14 BANG;
#N canvas 0 22 603 635 settings 0;
#X obj 381 289 hsl 200 15 10 100 0 0 empty sequence sequence 20 8 0
10 -262144 -260097 -1 0 0;
#X msg 378 335 sequence \$1;
#X floatatom 386 312 5 0 0 0 - - -;
#X obj 381 373 hsl 200 15 10 100 0 0 empty seekwindow seekwindow 20
8 0 10 -262144 -260097 -1 0 0;
#X floatatom 386 396 5 0 0 0 - - -;
#X obj 379 462 hsl 200 15 5 100 0 0 empty overlap overlap 20 8 0 10
-262144 -260097 -1 0 0;
#X floatatom 384 485 5 0 0 0 - - -;
#X obj 324 540 outlet;
#X msg 378 422 seekwindow \$1;
#X msg 376 509 overlap \$1;
#X msg 43 477 \; sequence 40 \; seekwindow 20 \; overlap 10 \;;
#X obj 39 289 cnv 15 300 150 empty empty empty 20 12 0 14 -233017 -66577
0;
#X obj 52 325 hsl 200 15 10 100 0 0 empty empty set 20 8 0 10 -262144
-260097 -1 0 0;
#X floatatom 57 348 5 0 0 0 - - -;
#X msg 49 371 set \$1;
#X text 113 348 all settings at once in the ratio:;
#X text 52 301 range 10 - 100 milliseconds;
#X text 43 50 - sequence: signal grain size;
#X text 43 76 - seekwindow: margin for finding best overlap match;
#X text 43 102 - overlap: overlap size of grains;
#X text 42 451 [soundtouch~] defaults:;
#X text 39 138 You can experiment with these settings according to
your sound material. For easy of use \, the 'set' selector does all
three settings at once in a fixed ratio \, but they can be set individually
as well. Notice that changing settings in runtime can sometimes cause
disproportionate latency in [soundtouch~] \, which is only undone when
you reload the object. Alternatively \, you can initialize [soundtouch~]
with an optional single argument for sequence size \, from which the
other settings are derived in fixed ratio.;
#X text 42 568 Website of the SoundTouch library:;
#X text 41 593 http://www.surina.net/soundtouch/;
#X text 42 9 In Olli Parviainen's SoundTouch library \, these settings
are user-definable in milliseconds:;
#X text 373 540 to [soundtouch~] left inlet;
#X text 112 369 sequence 1;
#X text 112 390 seekwindow 0.5;
#X text 113 410 overlap 0.25;
#X connect 0 0 1 0;
#X connect 0 0 2 0;
#X connect 1 0 7 0;
#X connect 3 0 8 0;
#X connect 3 0 4 0;
#X connect 5 0 9 0;
#X connect 5 0 6 0;
#X connect 8 0 7 0;
#X connect 9 0 7 0;
#X connect 12 0 14 0;
#X connect 12 0 13 0;
#X connect 14 0 7 0;
#X restore -31 136 pd settings;
#X obj -113 187 soundtouch~ 80;
#X floatatom 9 204 5 0 0 0 - - -;
#X text 45 205 pitch input;
#X floatatom 201 114 5 0 0 0 - - -;
#X obj 157 70 r loop;
#X obj -113 32 r play;
#X obj 124 131 s play2;
#X obj 162 243 r vol2;
#X obj 9 171 r pitch2;
#X obj 531 87 spigot;
#X obj 421 276 *~;
#X obj 294 277 *~;
#X obj 296 427 vcf~;
#X obj 421 427 vcf~;
#X floatatom 607 77 5 0 0 0 - - -;
#X floatatom 628 228 5 0 0 0 - - -;
#X text 627 212 vol input;
#N canvas 0 22 603 635 settings 0;
#X obj 381 289 hsl 200 15 10 100 0 0 empty sequence sequence 20 8 0
10 -262144 -260097 -1 0 0;
#X msg 378 335 sequence \$1;
#X floatatom 386 312 5 0 0 0 - - -;
#X obj 381 373 hsl 200 15 10 100 0 0 empty seekwindow seekwindow 20
8 0 10 -262144 -260097 -1 0 0;
#X floatatom 386 396 5 0 0 0 - - -;
#X obj 379 462 hsl 200 15 5 100 0 0 empty overlap overlap 20 8 0 10
-262144 -260097 -1 0 0;
#X floatatom 384 485 5 0 0 0 - - -;
#X obj 324 540 outlet;
#X msg 378 422 seekwindow \$1;
#X msg 376 509 overlap \$1;
#X msg 43 477 \; sequence 40 \; seekwindow 20 \; overlap 10 \;;
#X obj 39 289 cnv 15 300 150 empty empty empty 20 12 0 14 -233017 -66577
0;
#X obj 52 325 hsl 200 15 10 100 0 0 empty empty set 20 8 0 10 -262144
-260097 -1 0 0;
#X floatatom 57 348 5 0 0 0 - - -;
#X msg 49 371 set \$1;
#X text 113 348 all settings at once in the ratio:;
#X text 52 301 range 10 - 100 milliseconds;
#X text 43 50 - sequence: signal grain size;
#X text 43 76 - seekwindow: margin for finding best overlap match;
#X text 43 102 - overlap: overlap size of grains;
#X text 42 451 [soundtouch~] defaults:;
#X text 39 138 You can experiment with these settings according to
your sound material. For easy of use \, the 'set' selector does all
three settings at once in a fixed ratio \, but they can be set individually
as well. Notice that changing settings in runtime can sometimes cause
disproportionate latency in [soundtouch~] \, which is only undone when
you reload the object. Alternatively \, you can initialize [soundtouch~]
with an optional single argument for sequence size \, from which the
other settings are derived in fixed ratio.;
#X text 42 568 Website of the SoundTouch library:;
#X text 41 593 http://www.surina.net/soundtouch/;
#X text 42 9 In Olli Parviainen's SoundTouch library \, these settings
are user-definable in milliseconds:;
#X text 373 540 to [soundtouch~] left inlet;
#X text 112 369 sequence 1;
#X text 112 390 seekwindow 0.5;
#X text 113 410 overlap 0.25;
#X connect 0 0 1 0;
#X connect 0 0 2 0;
#X connect 1 0 7 0;
#X connect 3 0 8 0;
#X connect 3 0 4 0;
#X connect 5 0 9 0;
#X connect 5 0 6 0;
#X connect 8 0 7 0;
#X connect 9 0 7 0;
#X connect 12 0 14 0;
#X connect 12 0 13 0;
#X connect 14 0 7 0;
#X restore 376 126 pd settings;
#X obj 294 177 soundtouch~ 80;
#X floatatom 416 194 5 0 0 0 - - -;
#X text 452 195 pitch input;
#X floatatom 608 104 5 0 0 0 - - -;
#X obj 564 60 r loop;
#X obj 577 211 r vol2;
#X obj 416 161 r pitch2;
#X obj 444 39 tabplay~ Rchan2;
#X obj 294 70 tabplay~ Lchan2;
#X obj 307 301 s~ toVU3;
#X obj 429 300 s~ toVU4;
#X obj 153 268 r cross1;
#X obj 548 260 r cross2;
#X obj 294 22 r playdelay;
#X obj 532 138 s playdelay2;
#X text 294 4 DELAY BANG;
#X obj 14 259 *~;
#X obj -113 256 *~;
#X obj 421 227 *~;
#X obj 294 228 *~;
#X obj 81 361 r lo_pass;
#X text 188 360 lo pass input;
#X floatatom 563 387 5 0 0 0 - - -;
#X text 562 370 lo pass input;
#X obj 455 371 r lo_pass;
#X connect 0 0 19 0;
#X connect 0 0 22 0;
#X connect 1 0 3 0;
#X connect 1 0 9 0;
#X connect 2 0 4 0;
#X connect 2 0 8 0;
#X connect 6 0 16 0;
#X connect 6 1 0 0;
#X connect 7 0 16 0;
#X connect 7 1 0 0;
#X connect 8 0 5 0;
#X connect 9 0 5 1;
#X connect 15 0 16 0;
#X connect 16 0 51 0;
#X connect 16 0 50 0;
#X connect 20 0 10 0;
#X connect 20 0 0 1;
#X connect 21 0 6 0;
#X connect 21 0 7 0;
#X connect 23 0 11 0;
#X connect 23 0 51 1;
#X connect 23 0 50 1;
#X connect 24 0 16 1;
#X connect 24 0 17 0;
#X connect 25 0 37 0;
#X connect 25 0 48 0;
#X connect 26 0 29 0;
#X connect 26 0 44 0;
#X connect 27 0 28 0;
#X connect 27 0 43 0;
#X connect 28 0 5 0;
#X connect 29 0 5 1;
#X connect 33 0 34 0;
#X connect 34 0 53 0;
#X connect 34 0 52 0;
#X connect 38 0 30 0;
#X connect 38 0 25 1;
#X connect 39 0 31 0;
#X connect 39 0 53 1;
#X connect 39 0 52 1;
#X connect 40 0 34 1;
#X connect 40 0 35 0;
#X connect 41 0 34 0;
#X connect 41 1 25 0;
#X connect 42 0 34 0;
#X connect 42 1 25 0;
#X connect 45 0 1 1;
#X connect 45 0 2 1;
#X connect 46 0 26 1;
#X connect 46 0 27 1;
#X connect 47 0 41 0;
#X connect 47 0 42 0;
#X connect 50 0 1 0;
#X connect 51 0 2 0;
#X connect 52 0 26 0;
#X connect 53 0 27 0;
#X connect 54 0 12 0;
#X connect 54 0 9 0;
#X connect 54 0 8 0;
#X connect 58 0 56 0;
#X connect 58 0 29 0;
#X connect 58 0 28 0;
#X restore 34 345 pd vol/pitch/bpf guts;
#X obj -34 199 vu 15 120 empty empty -1 -8 0 10 -66577 -262144 1 0
;
#X obj -13 199 vu 15 120 empty empty -1 -8 0 10 -66577 -1 1 0;
#N canvas 526 53 218 324 chop 0;
#X floatatom 9 177 5 0 0 0 - - -;
#N canvas 854 60 450 300 crossfade 0;
#X obj 96 38 inlet;
#X obj 96 236 outlet;
#X obj 99 212 hsl 128 15 0 1 0 0 empty empty empty -2 -8 0 10 -262144
-1 -1 0 1;
#X floatatom 96 74 5 0 0 0 - - -;
#X msg 141 90 1;
#X obj 96 107 -;
#X floatatom 96 135 5 0 0 0 - - -;
#X floatatom 96 179 5 0 0 0 - - -;
#X obj 96 156 * -1;
#X connect 0 0 3 0;
#X connect 2 0 1 0;
#X connect 3 0 4 0;
#X connect 3 0 5 0;
#X connect 4 0 5 1;
#X connect 5 0 6 0;
#X connect 6 0 8 0;
#X connect 7 0 2 0;
#X connect 8 0 7 0;
#X restore 9 202 pd crossfade;
#X obj 110 193 s cross1;
#X obj 110 219 s cross2;
#X obj 9 1 r chopp;
#X obj 9 28 moses 1;
#X obj 9 129 line;
#X msg 9 72 0 100;
#X msg 49 72 1 100;
#X connect 0 0 1 0;
#X connect 0 0 2 0;
#X connect 1 0 3 0;
#X connect 4 0 5 0;
#X connect 5 0 7 0;
#X connect 5 1 8 0;
#X connect 6 0 0 0;
#X connect 7 0 6 0;
#X connect 8 0 6 0;
#X restore -18 345 pd chop;
#X floatatom 220 25 5 0 0 0 - - -;
#X obj 220 -1 r chopp;
#X obj 79 230 knob 32 32 0 1 0 0 empty empty empty 0 -8 0 8 -262144
-1 -1 0 1;
#X floatatom 79 280 5 0 0 0 - - -;
#X obj 79 302 s vol2;
#X obj 146 229 knob 32 32 0 1 0 0 empty empty empty 0 -8 0 8 -262144
-1 -1 0 1;
#X floatatom 146 280 5 0 0 0 - - -;
#X obj 146 302 s pitch2;
#X obj 208 230 knob 32 32 0 9000 0 0 empty empty empty 0 -8 0 8 -262144
-1 -1 0 1;
#X floatatom 208 280 5 0 0 0 - - -;
#X obj 208 302 s lo_pass;
#N canvas 672 80 646 666 wiimote 0;
#X obj -291 49 dumpOSC 5600;
#X obj 121 175 s chopp;
#X obj 49 137 route /wii/button/b;
#X floatatom 49 160 5 0 0 0 - - -;
#X floatatom 67 113 5 0 0 0 - - -;
#X obj 67 90 route /wii/button/a;
#X floatatom 34 230 5 0 0 0 - - -;
#X floatatom 21 273 5 0 0 0 - - -;
#X obj 34 206 route /wii/button/up;
#X obj 21 250 route /wii/button/down;
#X floatatom 8 318 5 0 0 0 - - -;
#X floatatom -4 362 5 0 0 0 - - -;
#X obj 8 294 route /wii/button/left;
#X obj -4 340 route /wii/button/right;
#X floatatom -26 406 5 0 0 0 - - -;
#X floatatom -54 450 5 0 0 0 - - -;
#X obj -26 382 route /wii/button/minus;
#X obj -54 428 route /wii/button/plus;
#X floatatom -81 493 5 0 0 0 - - -;
#X obj -81 471 route /wii/button/home;
#X floatatom -130 535 5 0 0 0 - - -;
#X floatatom -157 578 5 0 0 0 - - -;
#N canvas 434 108 122 124 a 0;
#X obj 12 11 inlet;
#X obj 12 72 s a;
#X obj 12 40 sel 1;
#X connect 0 0 2 0;
#X connect 2 0 1 0;
#X restore 191 129 pd a;
#N canvas 661 85 201 391 plus/minus 0;
#X obj 25 19 inlet;
#X obj 25 80 bng 15 250 50 0 empty empty empty 17 7 0 10 -262144 -1
-1;
#X obj 68 20 inlet;
#X obj 68 82 bng 15 250 50 0 empty empty empty 17 7 0 10 -262144 -1
-1;
#X obj 28 248 f;
#X obj 79 247 + 1;
#X obj 79 271 moses 0;
#X floatatom 79 327 5 0 0 0 - - -;
#X obj 28 202 t b f;
#X obj 79 298 moses 1.05;
#X obj 79 352 s Volume;
#X msg 25 109 -0.02;
#X msg 68 109 0.02;
#X connect 0 0 1 0;
#X connect 1 0 11 0;
#X connect 2 0 3 0;
#X connect 3 0 12 0;
#X connect 4 0 5 0;
#X connect 5 0 6 0;
#X connect 6 1 9 0;
#X connect 7 0 10 0;
#X connect 8 0 4 0;
#X connect 8 1 5 1;
#X connect 9 0 4 1;
#X connect 9 0 7 0;
#X connect 11 0 8 0;
#X connect 12 0 8 0;
#X restore 194 422 pd plus/minus;
#X obj -130 513 route /wii/button/1;
#X obj -157 556 route /wii/button/2;
#N canvas 860 104 168 400 pitch 0;
#X obj 25 19 inlet;
#X obj 25 55 bng 15 250 50 0 empty empty empty 17 7 0 10 -262144 -1
-1;
#X obj 68 20 inlet;
#X obj 68 57 bng 15 250 50 0 empty empty empty 17 7 0 10 -262144 -1
-1;
#X obj 28 248 f;
#X obj 79 247 + 1;
#X obj 79 271 moses 0;
#X floatatom 79 327 5 0 0 0 - - -;
#X obj 28 202 t b f;
#X obj 79 298 moses 1.05;
#X obj 79 352 s Pitch;
#X msg 25 84 -0.02;
#X msg 68 84 0.02;
#X connect 0 0 1 0;
#X connect 1 0 11 0;
#X connect 2 0 3 0;
#X connect 3 0 12 0;
#X connect 4 0 5 0;
#X connect 5 0 6 0;
#X connect 6 1 9 0;
#X connect 7 0 10 0;
#X connect 8 0 4 0;
#X connect 8 1 5 1;
#X connect 9 0 4 1;
#X connect 9 0 7 0;
#X connect 11 0 8 0;
#X connect 12 0 8 0;
#X restore 211 226 pd pitch;
#N canvas 394 28 169 382 lo 0;
#X obj 25 19 inlet;
#X obj 25 55 bng 15 250 50 0 empty empty empty 17 7 0 10 -262144 -1
-1;
#X obj 68 20 inlet;
#X obj 68 57 bng 15 250 50 0 empty empty empty 17 7 0 10 -262144 -1
-1;
#X obj 28 248 f;
#X obj 79 247 + 1;
#X obj 79 271 moses 0;
#X floatatom 79 327 5 0 0 0 - - -;
#X obj 28 202 t b f;
#X msg 25 84 -100;
#X obj 79 298 moses 9100;
#X msg 68 84 100;
#X obj 79 352 s Lo Pass;
#X connect 0 0 1 0;
#X connect 1 0 9 0;
#X connect 2 0 3 0;
#X connect 3 0 11 0;
#X connect 4 0 5 0;
#X connect 5 0 6 0;
#X connect 6 1 10 0;
#X connect 7 0 12 0;
#X connect 8 0 4 0;
#X connect 8 1 5 1;
#X connect 9 0 8 0;
#X connect 10 0 4 1;
#X connect 10 0 7 0;
#X connect 11 0 8 0;
#X restore 194 336 pd lo pass;
#X connect 0 0 2 0;
#X connect 0 0 5 0;
#X connect 0 0 8 0;
#X connect 0 0 9 0;
#X connect 0 0 12 0;
#X connect 0 0 13 0;
#X connect 0 0 16 0;
#X connect 0 0 17 0;
#X connect 0 0 19 0;
#X connect 0 0 24 0;
#X connect 0 0 25 0;
#X connect 2 0 3 0;
#X connect 3 0 1 0;
#X connect 4 0 22 0;
#X connect 5 0 4 0;
#X connect 6 0 26 1;
#X connect 7 0 26 0;
#X connect 8 0 6 0;
#X connect 9 0 7 0;
#X connect 10 0 27 0;
#X connect 11 0 27 1;
#X connect 12 0 10 0;
#X connect 13 0 11 0;
#X connect 14 0 23 0;
#X connect 15 0 23 1;
#X connect 16 0 14 0;
#X connect 17 0 15 0;
#X connect 19 0 18 0;
#X connect 24 0 20 0;
#X connect 25 0 21 0;
#X restore -88 344 pd wiimote;
#X obj 24 -5 r a;
#X obj 79 90 r Volume;
#X obj 146 89 r Pitch;
#X obj 208 88 r Lo Pass;
#X floatatom 294 271 5 0 0 0 - - -;
#X obj 294 299 s delay;
#X obj 294 74 vsl 15 180 0 2000 0 0 empty empty empty 0 -9 0 10 -232576
-1 -1 8055 1;
#X obj 294 -1 bng 30 250 50 0 empty empty empty 17 7 0 10 -232576 -1
-1;
#X obj 339 0 bng 30 250 50 0 empty empty empty 17 7 0 10 -232576 -1
-1;
#N canvas 524 56 262 393 delay 0;
#X obj 35 29 inlet;
#X obj 35 90 bng 15 250 50 0 empty empty empty 17 7 0 10 -262144 -1
-1;
#X obj 78 30 inlet;
#X obj 78 92 bng 15 250 50 0 empty empty empty 17 7 0 10 -262144 -1
-1;
#X obj 38 258 f;
#X obj 89 281 moses 0;
#X floatatom 89 337 5 0 0 0 - - -;
#X obj 38 212 t b f;
#X obj 89 362 outlet;
#X msg 35 119 -50;
#X msg 78 119 50;
#X obj 89 257 + 2000;
#X obj 89 308 moses 2050;
#X connect 0 0 1 0;
#X connect 1 0 9 0;
#X connect 2 0 3 0;
#X connect 3 0 10 0;
#X connect 4 0 11 0;
#X connect 5 1 12 0;
#X connect 6 0 8 0;
#X connect 7 0 4 0;
#X connect 7 1 11 1;
#X connect 9 0 7 0;
#X connect 10 0 7 0;
#X connect 11 0 5 0;
#X connect 12 0 4 1;
#X connect 12 0 6 0;
#X restore 294 41 pd delay;
#X text 305 6 -;
#X text 350 7 +;
#X connect 1 0 0 0;
#X connect 3 0 6 0;
#X connect 6 0 4 0;
#X connect 6 1 5 1;
#X connect 6 2 14 0;
#X connect 6 3 15 0;
#X connect 7 0 12 0;
#X connect 9 0 12 1;
#X connect 12 0 7 0;
#X connect 18 0 17 0;
#X connect 19 0 20 0;
#X connect 20 0 21 0;
#X connect 22 0 23 0;
#X connect 23 0 24 0;
#X connect 25 0 26 0;
#X connect 26 0 27 0;
#X connect 29 0 1 0;
#X connect 30 0 19 0;
#X connect 31 0 22 0;
#X connect 32 0 25 0;
#X connect 33 0 34 0;
#X connect 35 0 33 0;
#X connect 36 0 38 0;
#X connect 37 0 38 1;
#X connect 38 0 35 0;
